<?xml version="1.0" encoding="UTF-8" standalone="no"?>
<svg
   width="1000"
   height="1000"
   viewBox="0 0 264.58332 264.58332"
   version="1.1"
   id="svg8"
   inkscape:version="1.1 (ce6663b3b7, 2021-05-25)"
   sodipodi:docname="icon.svg"
   xmlns:inkscape="http://www.inkscape.org/namespaces/inkscape"
   xmlns:sodipodi="http://sodipodi.sourceforge.net/DTD/sodipodi-0.dtd"
   xmlns="http://www.w3.org/2000/svg"
   xmlns:svg="http://www.w3.org/2000/svg"
   xmlns:rdf="http://www.w3.org/1999/02/22-rdf-syntax-ns#"
   xmlns:cc="http://creativecommons.org/ns#"
   xmlns:dc="http://purl.org/dc/elements/1.1/">
  <defs
     id="defs2" />
  <sodipodi:namedview
     showborder="true"
     inkscape:showpageshadow="true"
     borderlayer="true"
     inkscape:snap-path-mask="true"
     inkscape:snap-path-clip="true"
     inkscape:snap-tangential="true"
     inkscape:snap-perpendicular="true"
     units="px"
     inkscape:pagecheckerboard="false"
     id="base"
     pagecolor="#353535"
     bordercolor="#e95420"
     borderopacity="1"
     inkscape:pageopacity="0"
     inkscape:pageshadow="2"
     inkscape:zoom="0.35"
     inkscape:cx="400"
     inkscape:cy="560"
     inkscape:document-units="px"
     inkscape:current-layer="layer1"
     inkscape:document-rotation="0"
     showgrid="false"
     inkscape:snap-global="true" />
  <metadata
     id="metadata5">
    <rdf:RDF>
      <cc:Work
         rdf:about="">
        <dc:format>image/svg+xml</dc:format>
        <dc:type
           rdf:resource="http://purl.org/dc/dcmitype/StillImage" />
      </cc:Work>
    </rdf:RDF>
  </metadata>
  <g
     inkscape:label="Layer 1"
     inkscape:groupmode="layer"
     id="layer1">
    <circle
       style="fill:#9becff;fill-opacity:0.386921;stroke:none;stroke-width:5.29167;stroke-miterlimit:4;stroke-dasharray:none;stroke-opacity:1;paint-order:stroke markers fill"
       id="path5877"
       cx="192.3618"
       cy="187.53064"
       r="7.9319401" />
    <path
       style="fill:#ffa61a;fill-opacity:1;stroke-width:5.2916664;stroke:#000000;stroke-opacity:1;stroke-miterlimit:4;stroke-dasharray:none"
       d="m 80.197509,189.73936 7.079526,-19.00051 14.529615,5.41368 14.52962,5.41368 10.85321,-5.0734 10.85321,-5.0734 3.43856,-9.17834 3.43861,-9.17832 -4.76099,-10.39989 -4.76099,-10.39987 -14.83314,-5.52678 -14.83315,-5.52678 7.07953,-19.00051 7.07952,-19.000517 18.78703,6.99998 18.78701,6.99998 -5.37087,14.414717 -5.37087,14.41472 5.02856,10.98609 5.02857,10.9861 13.55243,5.0496 13.55245,5.04959 -6.6818,17.93306 -6.6818,17.93308 -13.99907,-5.21601 -13.99906,-5.216 -10.39721,4.78771 -10.3972,4.78772 -5.51836,14.81055 -5.51837,14.81056 -18.787035,-6.99998 -18.787023,-6.99998 z m 24.630601,9.29884 1.98881,-5.70185 -5.82669,-2.30628 -5.826685,-2.30629 -2.15221,5.77625 -2.152211,5.77625 5.990083,2.23188 5.990093,2.23188 z m 32.6931,-87.74395 2.22708,-5.61307 -5.99007,-2.23188 -5.99009,-2.23188 -2.15221,5.77625 -2.15221,5.77625 5.91521,2.0687 5.9152,2.0687 z"
       id="path3738" />
    <path
       style="fill:#9becff;stroke:none;stroke-width:0.264583px;stroke-linecap:butt;stroke-linejoin:miter;stroke-opacity:1;fill-opacity:0.38692138"
       d="m 63.490996,150.63175 -25.445285,42.78224 -0.484688,27.20029 15.362126,14.41324 158.996651,-0.10864 18.73666,-15.55358 -0.19784,-22.56124 -24.99283,-47.65808 -12.98737,-13.58938 -38.79897,3.14662 -31.62981,12.38379 -43.329895,2.47362 z"
       id="path4234" />
    <path
       id="circle8666"
       style="fill:#9becff;fill-opacity:0.386921;stroke:none;stroke-width:42.5662;stroke-miterlimit:4;stroke-dasharray:none;stroke-opacity:1;paint-order:stroke markers fill"
       d="M 471.21289 567.15234 L 461.28906 571.03711 L 346.91797 577.56641 A 63.804322 63.804322 0 0 0 346.36133 585.69336 A 63.804322 63.804322 0 0 0 410.16602 649.49609 A 63.804322 63.804322 0 0 0 473.9707 585.69336 A 63.804322 63.804322 0 0 0 471.21289 567.15234 z "
       transform="scale(0.26458332)" />
    <path
       id="path7427"
       style="fill:#000000;stroke-width:0.498284"
       d="m 179.84171,129.07271 c -13.35455,-0.10628 -27.9228,3.38069 -42.59223,10.21178 -13.40686,6.24314 -21.25024,8.70255 -31.77479,9.96373 -7.590116,0.90951 -15.451976,0.80441 -22.422926,-0.29973 -4.52697,-0.71703 -13.952113,-3.05237 -13.952113,-3.45715 0,-0.003 0.08951,-0.16417 0.09353,-0.17415 l -6.963383,1.67845 2.283565,8.15713 c 0.120333,-0.0556 0.227277,-0.0747 0.322977,-0.0532 0.563589,0.12656 3.618071,0.91508 6.788229,1.75183 18.299485,4.83017 37.875101,3.97402 56.094761,-2.45308 2.42742,-0.85627 7.95932,-3.21351 12.2933,-5.23844 13.09323,-6.11746 22.52877,-8.78057 33.9757,-9.58908 5.39769,-0.38122 16.40663,-0.006 18.93475,0.64596 0.0242,0.006 0.0754,0.063 0.11369,0.0956 l 4.8886,-2.4877 -10.24485,-8.5323 c -0.0165,0.0434 -2.33701,-0.0238 -5.18419,-0.15038 -0.87919,-0.0391 -1.7643,-0.0622 -2.65462,-0.0692 z" />
    <circle
       style="fill:#9becff;fill-opacity:0.386921;stroke:none;stroke-width:5.13646;stroke-miterlimit:4;stroke-dasharray:none;stroke-opacity:1;paint-order:stroke markers fill"
       id="circle8753"
       cx="145.51389"
       cy="226.82881"
       r="7.6993032" />
    <path
       style="fill:#000000;stroke-width:0.755363"
       id="path2908"
       d="" />
    <circle
       style="fill:#9becff;fill-opacity:0.386921;stroke:none;stroke-width:1.7712;stroke-miterlimit:4;stroke-dasharray:none;stroke-opacity:1;paint-order:stroke markers fill"
       id="circle8755"
       cx="57.082874"
       cy="207.70886"
       r="2.6549454" />
    <path
       style="fill:#afbabc;stroke:none;stroke-width:0.264583px;stroke-linecap:butt;stroke-linejoin:miter;stroke-opacity:1;fill-opacity:0.1593833"
       d="M 54.037857,162.67352 102.54357,75.973394 V 43.09925 l -6.871673,-6.991361 -1.13393,-11.858724 74.836513,0.712211 4.5837,11.93421 -10.20277,6.765369 -0.37798,22.494564 68.61218,136.995691 -12.70013,26.08954 -24.26531,6.76698 L 59.264468,234.52554 41.497557,224.20437 33.10189,202.58595 Z"
       id="path5992" />
    <path
       id="path1077"
       style="fill:#000000;stroke-width:1.88328"
       d="m 502.69727,68.798828 c -126.09081,0 -127.19214,0.03414 -135.87696,4.048828 -25.20276,11.650546 -38.65898,40.741254 -31.01172,67.046874 3.86937,13.30995 15.01133,27.49423 26.30274,33.48438 l 8.75586,4.64453 V 279.57031 L 249.61133,495.27148 c -66.69028,118.63541 -123.09915,219.37139 -125.35352,223.85743 -10.76983,21.43056 -14.56775,59.1504 -8.5332,84.74804 11.83641,50.20819 51.84779,88.8973 102.59766,99.20899 9.85852,2.00349 66.12719,2.42441 289.08203,2.16211 308.66617,-0.36288 283.88037,0.70254 312.625,-13.42578 34.01408,-16.71848 60.83146,-50.58642 69.63867,-87.94532 6.03454,-25.59764 2.2366,-63.31748 -8.5332,-84.74804 -2.25434,-4.48604 -58.66322,-105.22202 -125.35352,-223.85743 L 634.52539,279.57031 V 178.02344 l 8.75586,-4.64453 c 11.29141,-5.99015 22.43344,-20.17443 26.30273,-33.48438 7.64739,-26.30562 -5.80693,-55.396328 -31.00976,-67.046874 -8.68479,-4.007236 -9.78624,-4.048828 -135.87695,-4.048828 z M 382.25195,106.46484 h 120.44532 120.44335 l 5.17969,5.17774 c 4.19955,9.31625 7.22776,18.19464 0.004,25.42383 -5.04465,5.04866 -5.84388,5.20285 -31.66406,6.12109 l -26.48828,0.94336 -5.48829,6.15039 c -4.61015,10.46479 -7.3349,15.92084 0.91407,24.16992 5.98847,5.98821 7.20741,6.40235 18.83203,6.40235 h 12.42969 v 108.48632 l 56.5,100.50196 c 31.07406,55.27623 56.45384,100.66572 56.49804,100.80664 0.0427,0.13599 0.0619,0.23389 0.17982,0.58249 l 8.58857,20.60452 11.00505,20.10205 c 5.71344,1.47273 117.51146,201.21744 121.81445,217.64062 11.43005,43.6266 -8.39921,87.87663 -48.11328,107.36524 -10.14459,4.97817 -19.77162,8.1414 -28.50195,9.36328 -16.42356,2.29814 -530.00705,2.15142 -546.15039,-0.15625 -6.69075,-0.95637 -17.54694,-4.69497 -26.61719,-9.16797 -39.7422,-19.59931 -59.53144,-63.77071 -48.11914,-107.4043 2.34357,-8.9605 14.52436,-32.34336 45.45312,-87.25 30.00194,-53.26119 41.12886,-70.06294 43.64302,-74.19904 l 9.23003,-18.20135 9.36719,-18.05664 c 1.11931,-2.2303 33.05098,-60.04699 73.44726,-131.88867 L 408.5332,289.35938 V 180.85352 h 12.42969 c 11.62469,0 12.84356,-0.41401 18.83203,-6.40235 8.24875,-8.24908 8.52823,-15.63834 0.91406,-24.16992 l -5.48828,-6.15039 -26.48828,-0.94336 c -25.81999,-0.91803 -26.61744,-1.07271 -31.66211,-6.12109 -7.22388,-7.22919 -7.22202,-18.19777 0.004,-25.42383 z"
       transform="scale(0.26458332)"
       sodipodi:nodetypes="scscccccsccsssccccccscccccccccscccsccccscscssccccccsccccssc" />
  </g>
  <inkscape:templateinfo>
    <inkscape:name>default-max</inkscape:name>
    <inkscape:date>2020-05-28</inkscape:date>
  </inkscape:templateinfo>
  <inkscape:templateinfo>
    <inkscape:name>default-max</inkscape:name>
    <inkscape:date>2020-05-28</inkscape:date>
  </inkscape:templateinfo>
</svg>
